<svg xmlns="http://www.w3.org/2000/svg" width="800" height="400" viewBox="0 0 800 400">
  <defs>
    <pattern id="grid" width="40" height="40" patternUnits="userSpaceOnUse">
      <path d="M40 0 L0 0 0 40" fill="none" stroke="#ffffff" stroke-opacity="0.08" stroke-width="1"/>
    </pattern>
    <clipPath id="circleClip">
      <circle cx="66" cy="66" r="34"/>
    </clipPath>
  </defs>
  <rect width="800" height="400" fill="#C084FC"/>
  <polygon points="480,0 800,0 800,400 340,400" fill="#0a0c18" opacity="0.82"/>
  <rect width="800" height="400" fill="url(#grid)"/>
  <g transform="translate(560,90) scale(2.15)">
    <circle cx="18" cy="30" r="14" fill="#C084FC"/><circle cx="18" cy="90" r="14" fill="#C084FC"/><circle cx="98" cy="60" r="14" fill="#C084FC"/><path d="M30 32 L86 58" stroke="#C084FC" stroke-width="6"/><path d="M30 88 L86 62" stroke="#C084FC" stroke-width="6"/>
  </g>
  <circle cx="66" cy="66" r="38" fill="#ffffff"/>
  <circle cx="66" cy="66" r="38" fill="none" stroke="#C084FC" stroke-width="3"/>
  <image href="https://icons.duckduckgo.com/ip3/make.com.ico" x="32" y="32" width="68" height="68" clip-path="url(#circleClip)" preserveAspectRatio="xMidYMid slice"/>
  <text x="46" y="330" font-family="Arial, sans-serif" font-size="44" font-weight="700" fill="#ffffff">Make</text>
  <rect x="46" y="345" width="60" height="4" rx="2" fill="#C084FC"/>
</svg>